<mxfile host="app.diagrams.net" modified="2023-06-22T15:37:24.293Z" agent="Mozilla/5.0 (Windows NT 10.0; Win64; x64) AppleWebKit/537.36 (KHTML, like Gecko) Chrome/114.0.0.0 Safari/537.36" etag="wyzaYugas13GY5ELPkyE" version="21.5.0" type="device">
  <diagram name="PÃ¡gina-1" id="5OqZbRasDK86dM1PaLgI">
    <mxGraphModel dx="874" dy="462" grid="1" gridSize="10" guides="1" tooltips="1" connect="1" arrows="1" fold="1" page="1" pageScale="1" pageWidth="827" pageHeight="1169" math="0" shadow="0">
      <root>
        <mxCell id="0" />
        <mxCell id="1" parent="0" />
        <mxCell id="R_w-_7n86-BaZ7OdsVi1-1" value="&lt;p style=&quot;margin:0px;margin-top:4px;text-align:center;&quot;&gt;&lt;i&gt;&amp;lt;&amp;lt;Interface&amp;gt;&amp;gt;&lt;/i&gt;&lt;br&gt;&lt;b&gt;Afinable&lt;/b&gt;&lt;/p&gt;&lt;hr size=&quot;1&quot;&gt;&lt;p style=&quot;margin:0px;margin-left:4px;&quot;&gt;&lt;span style=&quot;background-color: initial;&quot;&gt;+ afinar(): void&lt;/span&gt;&lt;/p&gt;" style="verticalAlign=top;align=left;overflow=fill;fontSize=12;fontFamily=Helvetica;html=1;whiteSpace=wrap;" vertex="1" parent="1">
          <mxGeometry x="130" y="140" width="190" height="70" as="geometry" />
        </mxCell>
        <mxCell id="R_w-_7n86-BaZ7OdsVi1-2" value="&amp;lt;&amp;lt; Abstract &amp;gt;&amp;gt;&lt;br&gt;Instrumento" style="swimlane;fontStyle=1;align=center;verticalAlign=top;childLayout=stackLayout;horizontal=1;startSize=40;horizontalStack=0;resizeParent=1;resizeParentMax=0;resizeLast=0;collapsible=1;marginBottom=0;whiteSpace=wrap;html=1;" vertex="1" parent="1">
          <mxGeometry x="275" y="280" width="330" height="230" as="geometry" />
        </mxCell>
        <mxCell id="R_w-_7n86-BaZ7OdsVi1-3" value="- nombre: String" style="text;strokeColor=none;fillColor=none;align=left;verticalAlign=top;spacingLeft=4;spacingRight=4;overflow=hidden;rotatable=0;points=[[0,0.5],[1,0.5]];portConstraint=eastwest;whiteSpace=wrap;html=1;" vertex="1" parent="R_w-_7n86-BaZ7OdsVi1-2">
          <mxGeometry y="40" width="330" height="26" as="geometry" />
        </mxCell>
        <mxCell id="R_w-_7n86-BaZ7OdsVi1-6" value="- marca: String" style="text;strokeColor=none;fillColor=none;align=left;verticalAlign=top;spacingLeft=4;spacingRight=4;overflow=hidden;rotatable=0;points=[[0,0.5],[1,0.5]];portConstraint=eastwest;whiteSpace=wrap;html=1;" vertex="1" parent="R_w-_7n86-BaZ7OdsVi1-2">
          <mxGeometry y="66" width="330" height="26" as="geometry" />
        </mxCell>
        <mxCell id="R_w-_7n86-BaZ7OdsVi1-7" value="- precio: double" style="text;strokeColor=none;fillColor=none;align=left;verticalAlign=top;spacingLeft=4;spacingRight=4;overflow=hidden;rotatable=0;points=[[0,0.5],[1,0.5]];portConstraint=eastwest;whiteSpace=wrap;html=1;" vertex="1" parent="R_w-_7n86-BaZ7OdsVi1-2">
          <mxGeometry y="92" width="330" height="26" as="geometry" />
        </mxCell>
        <mxCell id="R_w-_7n86-BaZ7OdsVi1-4" value="" style="line;strokeWidth=1;fillColor=none;align=left;verticalAlign=middle;spacingTop=-1;spacingLeft=3;spacingRight=3;rotatable=0;labelPosition=right;points=[];portConstraint=eastwest;strokeColor=inherit;" vertex="1" parent="R_w-_7n86-BaZ7OdsVi1-2">
          <mxGeometry y="118" width="330" height="8" as="geometry" />
        </mxCell>
        <mxCell id="R_w-_7n86-BaZ7OdsVi1-5" value="+ Instrumento(String nombre, String marca, double precio)" style="text;strokeColor=none;fillColor=none;align=left;verticalAlign=top;spacingLeft=4;spacingRight=4;overflow=hidden;rotatable=0;points=[[0,0.5],[1,0.5]];portConstraint=eastwest;whiteSpace=wrap;html=1;" vertex="1" parent="R_w-_7n86-BaZ7OdsVi1-2">
          <mxGeometry y="126" width="330" height="26" as="geometry" />
        </mxCell>
        <mxCell id="R_w-_7n86-BaZ7OdsVi1-31" value="+ getNombre(): String" style="text;strokeColor=none;fillColor=none;align=left;verticalAlign=top;spacingLeft=4;spacingRight=4;overflow=hidden;rotatable=0;points=[[0,0.5],[1,0.5]];portConstraint=eastwest;whiteSpace=wrap;html=1;" vertex="1" parent="R_w-_7n86-BaZ7OdsVi1-2">
          <mxGeometry y="152" width="330" height="26" as="geometry" />
        </mxCell>
        <mxCell id="R_w-_7n86-BaZ7OdsVi1-32" value="+ toString(): String" style="text;strokeColor=none;fillColor=none;align=left;verticalAlign=top;spacingLeft=4;spacingRight=4;overflow=hidden;rotatable=0;points=[[0,0.5],[1,0.5]];portConstraint=eastwest;whiteSpace=wrap;html=1;" vertex="1" parent="R_w-_7n86-BaZ7OdsVi1-2">
          <mxGeometry y="178" width="330" height="26" as="geometry" />
        </mxCell>
        <mxCell id="R_w-_7n86-BaZ7OdsVi1-8" value="+ abstract tocar(): void" style="text;strokeColor=none;fillColor=none;align=left;verticalAlign=top;spacingLeft=4;spacingRight=4;overflow=hidden;rotatable=0;points=[[0,0.5],[1,0.5]];portConstraint=eastwest;whiteSpace=wrap;html=1;" vertex="1" parent="R_w-_7n86-BaZ7OdsVi1-2">
          <mxGeometry y="204" width="330" height="26" as="geometry" />
        </mxCell>
        <mxCell id="R_w-_7n86-BaZ7OdsVi1-9" value="Guitarra" style="swimlane;fontStyle=1;align=center;verticalAlign=top;childLayout=stackLayout;horizontal=1;startSize=26;horizontalStack=0;resizeParent=1;resizeParentMax=0;resizeLast=0;collapsible=1;marginBottom=0;whiteSpace=wrap;html=1;" vertex="1" parent="1">
          <mxGeometry x="170" y="550" width="160" height="60" as="geometry" />
        </mxCell>
        <mxCell id="R_w-_7n86-BaZ7OdsVi1-10" value="- numeroDeCuerdas: int" style="text;strokeColor=none;fillColor=none;align=left;verticalAlign=top;spacingLeft=4;spacingRight=4;overflow=hidden;rotatable=0;points=[[0,0.5],[1,0.5]];portConstraint=eastwest;whiteSpace=wrap;html=1;" vertex="1" parent="R_w-_7n86-BaZ7OdsVi1-9">
          <mxGeometry y="26" width="160" height="26" as="geometry" />
        </mxCell>
        <mxCell id="R_w-_7n86-BaZ7OdsVi1-11" value="" style="line;strokeWidth=1;fillColor=none;align=left;verticalAlign=middle;spacingTop=-1;spacingLeft=3;spacingRight=3;rotatable=0;labelPosition=right;points=[];portConstraint=eastwest;strokeColor=inherit;" vertex="1" parent="R_w-_7n86-BaZ7OdsVi1-9">
          <mxGeometry y="52" width="160" height="8" as="geometry" />
        </mxCell>
        <mxCell id="R_w-_7n86-BaZ7OdsVi1-13" value="Piano" style="swimlane;fontStyle=1;align=center;verticalAlign=top;childLayout=stackLayout;horizontal=1;startSize=26;horizontalStack=0;resizeParent=1;resizeParentMax=0;resizeLast=0;collapsible=1;marginBottom=0;whiteSpace=wrap;html=1;" vertex="1" parent="1">
          <mxGeometry x="360" y="550" width="160" height="60" as="geometry" />
        </mxCell>
        <mxCell id="R_w-_7n86-BaZ7OdsVi1-14" value="- numeroDeTeclas: int" style="text;strokeColor=none;fillColor=none;align=left;verticalAlign=top;spacingLeft=4;spacingRight=4;overflow=hidden;rotatable=0;points=[[0,0.5],[1,0.5]];portConstraint=eastwest;whiteSpace=wrap;html=1;" vertex="1" parent="R_w-_7n86-BaZ7OdsVi1-13">
          <mxGeometry y="26" width="160" height="26" as="geometry" />
        </mxCell>
        <mxCell id="R_w-_7n86-BaZ7OdsVi1-15" value="" style="line;strokeWidth=1;fillColor=none;align=left;verticalAlign=middle;spacingTop=-1;spacingLeft=3;spacingRight=3;rotatable=0;labelPosition=right;points=[];portConstraint=eastwest;strokeColor=inherit;" vertex="1" parent="R_w-_7n86-BaZ7OdsVi1-13">
          <mxGeometry y="52" width="160" height="8" as="geometry" />
        </mxCell>
        <mxCell id="R_w-_7n86-BaZ7OdsVi1-16" value="Violin" style="swimlane;fontStyle=1;align=center;verticalAlign=top;childLayout=stackLayout;horizontal=1;startSize=26;horizontalStack=0;resizeParent=1;resizeParentMax=0;resizeLast=0;collapsible=1;marginBottom=0;whiteSpace=wrap;html=1;" vertex="1" parent="1">
          <mxGeometry x="540" y="550" width="160" height="60" as="geometry" />
        </mxCell>
        <mxCell id="R_w-_7n86-BaZ7OdsVi1-17" value="- tipoDeViolin: String" style="text;strokeColor=none;fillColor=none;align=left;verticalAlign=top;spacingLeft=4;spacingRight=4;overflow=hidden;rotatable=0;points=[[0,0.5],[1,0.5]];portConstraint=eastwest;whiteSpace=wrap;html=1;" vertex="1" parent="R_w-_7n86-BaZ7OdsVi1-16">
          <mxGeometry y="26" width="160" height="26" as="geometry" />
        </mxCell>
        <mxCell id="R_w-_7n86-BaZ7OdsVi1-18" value="" style="line;strokeWidth=1;fillColor=none;align=left;verticalAlign=middle;spacingTop=-1;spacingLeft=3;spacingRight=3;rotatable=0;labelPosition=right;points=[];portConstraint=eastwest;strokeColor=inherit;" vertex="1" parent="R_w-_7n86-BaZ7OdsVi1-16">
          <mxGeometry y="52" width="160" height="8" as="geometry" />
        </mxCell>
        <mxCell id="R_w-_7n86-BaZ7OdsVi1-19" value="Extends" style="endArrow=block;endSize=16;endFill=0;html=1;rounded=0;exitX=0.5;exitY=0;exitDx=0;exitDy=0;entryX=0.006;entryY=1.154;entryDx=0;entryDy=0;entryPerimeter=0;" edge="1" parent="1" source="R_w-_7n86-BaZ7OdsVi1-9" target="R_w-_7n86-BaZ7OdsVi1-8">
          <mxGeometry width="160" relative="1" as="geometry">
            <mxPoint x="220" y="450" as="sourcePoint" />
            <mxPoint x="380" y="450" as="targetPoint" />
          </mxGeometry>
        </mxCell>
        <mxCell id="R_w-_7n86-BaZ7OdsVi1-20" value="Extends" style="endArrow=block;endSize=16;endFill=0;html=1;rounded=0;exitX=0.5;exitY=0;exitDx=0;exitDy=0;entryX=0.494;entryY=1.077;entryDx=0;entryDy=0;entryPerimeter=0;" edge="1" parent="1" source="R_w-_7n86-BaZ7OdsVi1-13" target="R_w-_7n86-BaZ7OdsVi1-8">
          <mxGeometry width="160" relative="1" as="geometry">
            <mxPoint x="260" y="560" as="sourcePoint" />
            <mxPoint x="287" y="502" as="targetPoint" />
          </mxGeometry>
        </mxCell>
        <mxCell id="R_w-_7n86-BaZ7OdsVi1-21" value="Extends" style="endArrow=block;endSize=16;endFill=0;html=1;rounded=0;exitX=0.5;exitY=0;exitDx=0;exitDy=0;entryX=0.997;entryY=0.962;entryDx=0;entryDy=0;entryPerimeter=0;" edge="1" parent="1" source="R_w-_7n86-BaZ7OdsVi1-16" target="R_w-_7n86-BaZ7OdsVi1-8">
          <mxGeometry width="160" relative="1" as="geometry">
            <mxPoint x="270" y="570" as="sourcePoint" />
            <mxPoint x="297" y="512" as="targetPoint" />
          </mxGeometry>
        </mxCell>
        <mxCell id="R_w-_7n86-BaZ7OdsVi1-22" value="" style="endArrow=block;dashed=1;endFill=0;endSize=12;html=1;rounded=0;exitX=0;exitY=0;exitDx=0;exitDy=0;entryX=0.5;entryY=1;entryDx=0;entryDy=0;" edge="1" parent="1" source="R_w-_7n86-BaZ7OdsVi1-2" target="R_w-_7n86-BaZ7OdsVi1-1">
          <mxGeometry width="160" relative="1" as="geometry">
            <mxPoint x="191" y="360" as="sourcePoint" />
            <mxPoint x="351" y="360" as="targetPoint" />
          </mxGeometry>
        </mxCell>
        <mxCell id="R_w-_7n86-BaZ7OdsVi1-23" value="Tienda" style="swimlane;fontStyle=1;align=center;verticalAlign=top;childLayout=stackLayout;horizontal=1;startSize=26;horizontalStack=0;resizeParent=1;resizeParentMax=0;resizeLast=0;collapsible=1;marginBottom=0;whiteSpace=wrap;html=1;" vertex="1" parent="1">
          <mxGeometry x="470" y="80" width="300" height="164" as="geometry" />
        </mxCell>
        <mxCell id="R_w-_7n86-BaZ7OdsVi1-24" value="- instrumentos: Instrumentos[]" style="text;strokeColor=none;fillColor=none;align=left;verticalAlign=top;spacingLeft=4;spacingRight=4;overflow=hidden;rotatable=0;points=[[0,0.5],[1,0.5]];portConstraint=eastwest;whiteSpace=wrap;html=1;" vertex="1" parent="R_w-_7n86-BaZ7OdsVi1-23">
          <mxGeometry y="26" width="300" height="26" as="geometry" />
        </mxCell>
        <mxCell id="R_w-_7n86-BaZ7OdsVi1-25" value="" style="line;strokeWidth=1;fillColor=none;align=left;verticalAlign=middle;spacingTop=-1;spacingLeft=3;spacingRight=3;rotatable=0;labelPosition=right;points=[];portConstraint=eastwest;strokeColor=inherit;" vertex="1" parent="R_w-_7n86-BaZ7OdsVi1-23">
          <mxGeometry y="52" width="300" height="8" as="geometry" />
        </mxCell>
        <mxCell id="R_w-_7n86-BaZ7OdsVi1-26" value="+ Tienda()" style="text;strokeColor=none;fillColor=none;align=left;verticalAlign=top;spacingLeft=4;spacingRight=4;overflow=hidden;rotatable=0;points=[[0,0.5],[1,0.5]];portConstraint=eastwest;whiteSpace=wrap;html=1;" vertex="1" parent="R_w-_7n86-BaZ7OdsVi1-23">
          <mxGeometry y="60" width="300" height="26" as="geometry" />
        </mxCell>
        <mxCell id="R_w-_7n86-BaZ7OdsVi1-27" value="+ agregarInstrumento(Instrumento instrumento): void" style="text;strokeColor=none;fillColor=none;align=left;verticalAlign=top;spacingLeft=4;spacingRight=4;overflow=hidden;rotatable=0;points=[[0,0.5],[1,0.5]];portConstraint=eastwest;whiteSpace=wrap;html=1;" vertex="1" parent="R_w-_7n86-BaZ7OdsVi1-23">
          <mxGeometry y="86" width="300" height="26" as="geometry" />
        </mxCell>
        <mxCell id="R_w-_7n86-BaZ7OdsVi1-30" value="+ mostrarInstrumentos(): void" style="text;strokeColor=none;fillColor=none;align=left;verticalAlign=top;spacingLeft=4;spacingRight=4;overflow=hidden;rotatable=0;points=[[0,0.5],[1,0.5]];portConstraint=eastwest;whiteSpace=wrap;html=1;" vertex="1" parent="R_w-_7n86-BaZ7OdsVi1-23">
          <mxGeometry y="112" width="300" height="26" as="geometry" />
        </mxCell>
        <mxCell id="R_w-_7n86-BaZ7OdsVi1-28" value="+ venderInstrumento(Instrumento instrumento): void" style="text;strokeColor=none;fillColor=none;align=left;verticalAlign=top;spacingLeft=4;spacingRight=4;overflow=hidden;rotatable=0;points=[[0,0.5],[1,0.5]];portConstraint=eastwest;whiteSpace=wrap;html=1;" vertex="1" parent="R_w-_7n86-BaZ7OdsVi1-23">
          <mxGeometry y="138" width="300" height="26" as="geometry" />
        </mxCell>
        <mxCell id="R_w-_7n86-BaZ7OdsVi1-29" value="" style="endArrow=diamondThin;endFill=0;endSize=24;html=1;rounded=0;entryX=0.52;entryY=1.154;entryDx=0;entryDy=0;entryPerimeter=0;exitX=1;exitY=0;exitDx=0;exitDy=0;" edge="1" parent="1" source="R_w-_7n86-BaZ7OdsVi1-2" target="R_w-_7n86-BaZ7OdsVi1-28">
          <mxGeometry width="160" relative="1" as="geometry">
            <mxPoint x="450" y="350" as="sourcePoint" />
            <mxPoint x="490" y="350" as="targetPoint" />
          </mxGeometry>
        </mxCell>
      </root>
    </mxGraphModel>
  </diagram>
</mxfile>
